<?xml version="1.0" standalone="no"?>
<!DOCTYPE svg PUBLIC "-//W3C//DTD SVG 20010904//EN"
 "http://www.w3.org/TR/2001/REC-SVG-20010904/DTD/svg10.dtd">
<svg version="1.0" xmlns="http://www.w3.org/2000/svg"
 width="676.000000pt" height="676.000000pt" viewBox="0 0 676.000000 676.000000"
 preserveAspectRatio="xMidYMid meet">
<metadata>
Created by potrace 1.11, written by Peter Selinger 2001-2013
</metadata>
<g transform="translate(0.000000,676.000000) scale(0.100000,-0.100000)"
fill="#000000" stroke="none">
<path d="M2746 6746 c4 -11 1 -16 -10 -16 -23 0 -77 -35 -68 -46 4 -4 -1 -2
-10 5 -13 10 -18 10 -18 2 0 -7 -5 -9 -12 -5 -9 5 -8 2 1 -9 12 -15 12 -17 -1
-12 -16 6 -71 -39 -60 -50 4 -3 -5 -4 -20 -1 -19 3 -25 1 -22 -9 3 -7 -5 -15
-21 -19 -16 -4 -23 -11 -19 -18 5 -7 0 -9 -14 -6 -15 4 -22 2 -22 -8 0 -8 -4
-13 -9 -11 -5 1 -21 -11 -36 -28 -15 -16 -24 -24 -20 -16 6 9 4 12 -3 7 -7 -4
-12 -14 -12 -22 0 -8 -4 -12 -10 -9 -10 6 -15 -9 -10 -30 1 -5 -2 -7 -6 -3 -9
10 -36 -11 -29 -22 3 -5 0 -12 -6 -16 -8 -5 -9 -3 -4 7 8 12 6 12 -8 0 -9 -7
-14 -17 -11 -22 3 -5 -2 -9 -10 -9 -9 0 -15 -3 -15 -7 3 -20 -2 -34 -10 -28
-5 3 -12 1 -16 -5 -3 -5 -1 -10 5 -10 6 0 8 -5 5 -10 -4 -6 -11 -8 -16 -5 -5
4 -9 1 -9 -5 0 -6 -12 -23 -27 -37 -23 -21 -24 -25 -8 -20 20 7 20 7 1 -8 -11
-8 -16 -15 -11 -15 5 0 0 -7 -11 -16 -10 -8 -12 -13 -4 -9 8 4 5 -2 -8 -12
-19 -15 -20 -21 -10 -33 7 -8 9 -11 4 -7 -12 9 -39 -30 -31 -43 3 -6 -2 -10
-12 -10 -15 0 -16 -2 -3 -10 14 -9 13 -11 -9 -14 -5 0 -13 -5 -18 -10 -5 -5
-3 -6 5 -2 8 5 11 0 9 -15 -2 -13 -10 -25 -17 -27 -8 -3 -10 0 -5 8 5 9 4 11
-4 6 -9 -6 -9 -11 -1 -21 12 -14 3 -48 -11 -39 -5 3 -6 -3 -2 -12 5 -13 3 -15
-8 -9 -12 7 -12 6 -1 -7 10 -13 10 -17 -2 -21 -9 -3 -12 -15 -9 -31 3 -16 1
-26 -6 -26 -7 0 -9 -4 -6 -10 3 -5 1 -10 -5 -10 -6 0 -9 -4 -6 -9 4 -5 0 -12
-6 -14 -10 -4 -9 -6 1 -6 11 -1 11 -4 0 -17 -7 -9 -14 -30 -15 -47 0 -18 -6
-50 -12 -71 -6 -22 -9 -42 -7 -44 3 -3 -3 -11 -13 -19 -9 -7 -12 -12 -7 -11 6
2 10 -1 10 -7 0 -5 -3 -9 -6 -8 -3 1 -6 -4 -6 -12 0 -8 4 -12 9 -9 5 3 2 -10
-6 -30 -11 -26 -11 -36 -3 -40 9 -3 8 -7 -3 -15 -8 -5 -12 -13 -8 -16 3 -4 2
-20 -2 -36 -5 -16 -5 -27 0 -24 4 3 6 -14 4 -37 -10 -94 -10 -108 0 -112 6 -2
2 -5 -9 -5 -17 -1 -17 -3 -5 -11 8 -5 12 -10 8 -10 -4 0 -3 -14 2 -31 8 -28 7
-29 -7 -17 -14 11 -14 9 1 -21 10 -18 13 -30 8 -27 -6 3 -13 -1 -16 -10 -3 -8
-2 -13 3 -10 5 3 12 -1 15 -10 3 -8 2 -13 -3 -10 -5 3 -12 -1 -15 -10 -3 -8
-2 -13 3 -10 5 3 12 -1 15 -10 3 -8 2 -13 -3 -10 -5 3 -11 -1 -15 -9 -3 -8 0
-17 6 -21 7 -5 8 -2 3 6 -6 9 -4 11 5 5 10 -6 9 -11 -5 -22 -11 -7 -13 -13 -7
-13 7 0 12 -7 12 -15 0 -8 -6 -15 -12 -15 -9 0 -8 -4 2 -10 13 -9 13 -10 0
-10 -13 0 -13 -1 0 -10 13 -9 13 -11 0 -20 -13 -9 -13 -10 0 -10 13 0 13 -1 0
-10 -13 -9 -13 -10 0 -10 13 0 13 -1 0 -10 -13 -9 -13 -11 0 -20 8 -5 10 -10
4 -10 -15 0 -23 -44 -12 -64 6 -11 5 -16 -4 -16 -9 0 -9 -3 2 -10 8 -5 10 -10
5 -10 -6 0 -10 -20 -10 -46 1 -25 -2 -47 -5 -49 -3 -2 -5 -18 -4 -35 2 -27 0
-29 -14 -18 -12 10 -14 10 -8 0 13 -21 17 -62 7 -62 -6 0 -7 -7 -4 -17 4 -11
3 -14 -5 -9 -7 4 -12 1 -12 -9 0 -9 5 -13 11 -9 6 3 5 -4 -3 -17 -8 -13 -14
-31 -14 -39 1 -8 -5 -20 -14 -27 -10 -8 -11 -12 -3 -13 7 0 10 -7 7 -15 -4 -8
-11 -12 -18 -8 -6 4 -5 -1 3 -11 8 -9 10 -16 5 -15 -21 4 -28 -2 -14 -11 11
-7 11 -10 2 -10 -7 0 -10 -4 -7 -10 3 -5 2 -10 -4 -10 -6 0 -8 -7 -5 -15 4 -8
-1 -17 -10 -21 -9 -3 -13 -10 -10 -15 6 -11 -7 -37 -21 -40 -5 -1 -9 -10 -7
-21 2 -10 -1 -18 -7 -18 -6 0 -8 -7 -5 -15 4 -8 1 -15 -6 -15 -6 0 -8 -4 -5
-10 3 -5 -2 -10 -12 -10 -15 0 -16 -2 -3 -10 14 -9 7 -14 -13 -11 -4 1 -3 -8
4 -20 8 -16 8 -20 -1 -14 -7 4 -13 -1 -17 -13 -3 -11 -11 -23 -19 -26 -7 -3
-11 -12 -8 -19 3 -8 -2 -17 -11 -21 -9 -3 -13 -10 -10 -16 3 -6 -1 -13 -9 -16
-9 -3 -13 -10 -10 -15 3 -5 -2 -12 -10 -15 -9 -3 -16 -13 -16 -21 0 -8 -4 -11
-10 -8 -5 3 -7 0 -4 -8 3 -8 -5 -25 -18 -38 -15 -15 -23 -35 -23 -51 1 -15 -2
-25 -7 -22 -4 3 -6 10 -3 15 4 5 1 9 -4 9 -10 0 -13 -8 -10 -27 0 -3 -6 -10
-15 -15 -9 -5 -16 -16 -16 -24 0 -8 -4 -13 -9 -10 -11 7 -23 -22 -14 -36 3 -7
1 -8 -5 -4 -7 4 -12 2 -12 -4 0 -6 -5 -8 -12 -4 -9 5 -9 2 1 -9 12 -15 11 -17
-2 -17 -9 0 -19 -5 -23 -12 -5 -7 -3 -8 7 -3 11 7 11 5 -1 -11 -8 -10 -19 -22
-23 -25 -5 -3 -9 -10 -10 -15 -1 -5 -6 -8 -12 -6 -5 2 -7 0 -3 -3 11 -12 -12
-47 -27 -42 -9 4 -11 -1 -8 -14 3 -11 0 -19 -6 -19 -7 0 -9 5 -5 12 4 7 3 8
-4 4 -6 -4 -8 -14 -5 -23 4 -11 3 -14 -5 -9 -8 5 -12 -1 -12 -16 0 -19 -2 -20
-11 -8 -9 12 -10 11 -6 -7 3 -13 0 -26 -5 -30 -7 -4 -8 -1 -3 8 8 12 6 12 -8
0 -9 -7 -14 -17 -11 -22 3 -5 0 -9 -6 -9 -6 0 -8 -5 -4 -12 5 -8 0 -7 -11 2
-13 10 -16 11 -11 2 5 -9 0 -22 -14 -37 -13 -14 -19 -29 -15 -36 5 -8 4 -10
-3 -5 -7 4 -12 2 -12 -4 0 -6 -5 -8 -13 -4 -7 5 -6 0 3 -11 9 -11 10 -16 3
-11 -8 4 -13 2 -13 -4 0 -6 -4 -8 -10 -5 -6 4 -7 -1 -3 -11 4 -12 3 -15 -5
-10 -7 4 -12 1 -12 -9 0 -9 -4 -14 -9 -10 -6 3 -8 -4 -6 -15 2 -11 0 -18 -4
-15 -5 2 -15 -3 -22 -12 -12 -14 -12 -16 1 -9 8 4 5 -1 -7 -10 -13 -9 -23 -25
-23 -35 0 -11 -7 -19 -15 -19 -8 0 -15 -7 -15 -15 0 -8 -5 -15 -11 -15 -6 0
-9 -7 -6 -15 4 -8 1 -17 -5 -21 -7 -5 -8 -2 -3 7 4 8 -1 5 -12 -6 -11 -11 -16
-21 -12 -23 5 -2 3 -9 -4 -17 -7 -7 -16 -10 -21 -7 -5 3 -6 -2 -3 -12 4 -10 1
-19 -8 -22 -8 -4 -13 -9 -10 -13 2 -4 -5 -14 -15 -21 -16 -11 -17 -17 -7 -29
7 -8 8 -12 2 -9 -12 7 -37 -17 -28 -26 4 -3 1 -6 -6 -6 -7 0 -9 -4 -6 -10 3
-5 1 -10 -6 -10 -7 0 -9 -3 -6 -6 4 -4 -2 -15 -14 -25 -14 -12 -16 -18 -7 -22
11 -4 10 -6 0 -6 -7 -1 -10 -6 -6 -13 5 -8 2 -9 -10 -5 -14 6 -15 4 -5 -14 6
-12 7 -19 1 -15 -5 3 -17 -5 -25 -18 -12 -18 -13 -26 -4 -35 9 -10 9 -12 -2
-9 -7 2 -15 -6 -17 -16 -1 -10 -9 -23 -16 -27 -10 -7 -10 -9 2 -9 12 -1 11 -3
-2 -11 -10 -5 -18 -17 -18 -25 0 -10 -5 -12 -12 -8 -9 5 -9 2 1 -9 9 -12 10
-17 2 -17 -7 0 -9 -5 -6 -10 3 -6 -1 -13 -9 -16 -9 -3 -13 -10 -10 -15 3 -6 0
-17 -8 -26 -7 -10 -8 -14 -1 -10 7 5 9 0 6 -13 -3 -11 -13 -20 -22 -21 -11 0
-12 -2 -3 -6 10 -4 10 -8 0 -21 -11 -13 -11 -15 2 -8 9 4 8 1 -3 -7 -17 -14
-24 -33 -9 -23 5 3 9 -1 9 -9 0 -8 -4 -12 -8 -10 -3 3 -12 -2 -18 -9 -8 -10
-9 -16 -1 -21 7 -4 5 -11 -5 -21 -10 -10 -12 -21 -7 -31 10 -17 -7 -63 -23
-63 -5 0 -4 -4 4 -9 9 -6 10 -14 3 -27 -5 -11 -8 -29 -7 -42 1 -12 -2 -22 -7
-22 -4 0 -8 -5 -8 -11 0 -5 5 -7 12 -3 7 5 8 3 2 -7 -11 -19 -14 -180 -3 -173
5 3 9 0 9 -5 0 -6 -4 -11 -8 -11 -5 0 -9 -7 -9 -15 0 -8 4 -12 8 -10 4 3 10
-2 13 -11 9 -24 7 -31 -4 -14 -5 8 -10 10 -10 5 0 -21 32 -55 51 -55 24 0 154
125 144 139 -3 7 -3 11 2 10 22 -4 47 2 37 9 -9 5 -8 11 2 20 8 7 14 10 14 7
0 -3 8 3 18 13 11 9 17 20 15 24 -2 4 6 12 17 18 11 6 18 15 15 21 -4 5 -3 8
2 7 11 -3 63 46 63 61 0 6 5 11 11 11 5 0 7 -5 3 -12 -5 -7 -3 -8 5 -4 7 5 10
14 7 22 -3 8 1 14 10 14 8 0 17 7 20 15 4 8 10 12 15 9 5 -3 6 3 2 13 -3 10
-3 15 2 11 4 -4 21 5 36 21 15 16 30 26 34 23 3 -4 3 1 0 10 -4 11 0 18 16 23
17 6 19 9 8 17 -10 7 -8 8 9 5 12 -3 20 -1 17 4 -3 4 5 19 17 31 13 13 22 26
21 30 -2 5 3 7 10 5 6 -1 11 6 11 16 -2 15 1 16 15 5 9 -7 13 -8 9 -4 -5 5 1
15 12 23 11 8 20 21 20 29 0 8 5 12 10 9 6 -3 11 -1 11 4 1 6 2 15 3 20 0 5 5
13 10 18 5 5 6 3 2 -4 -4 -7 -2 -13 3 -13 6 0 11 7 11 15 0 8 4 15 9 15 5 0
12 9 16 19 3 11 12 18 18 15 14 -5 18 -44 5 -44 -4 0 -8 -5 -8 -11 0 -5 5 -7
12 -3 7 4 2 -6 -10 -23 -12 -17 -19 -33 -15 -36 3 -4 0 -13 -6 -21 -8 -10 -9
-16 -1 -21 7 -4 5 -11 -5 -21 -11 -11 -12 -20 -5 -34 7 -13 6 -19 -5 -24 -11
-4 -14 -14 -10 -36 3 -18 1 -30 -5 -30 -7 0 -8 -6 0 -19 7 -14 7 -22 -1 -27
-8 -4 -7 -9 2 -15 11 -7 11 -9 1 -9 -7 0 -10 -4 -7 -10 3 -6 -2 -10 -12 -10
-14 0 -15 -2 -4 -9 8 -5 10 -14 6 -21 -6 -9 -4 -11 4 -5 10 6 11 3 2 -14 -7
-11 -8 -21 -4 -21 4 0 1 -5 -7 -10 -11 -7 -11 -10 -2 -10 7 0 10 -4 7 -10 -3
-6 0 -10 7 -10 9 0 9 -3 -2 -10 -8 -5 -11 -10 -6 -10 5 0 3 -7 -4 -14 -8 -10
-8 -21 -2 -32 12 -21 4 -56 -12 -48 -6 3 -3 -1 7 -9 15 -13 15 -15 2 -20 -8
-4 -12 -13 -9 -22 3 -8 11 -12 18 -8 6 4 4 -2 -4 -12 -12 -14 -12 -19 -2 -23
10 -3 9 -7 -4 -16 -15 -11 -15 -14 0 -29 11 -10 13 -18 5 -22 -7 -5 -5 -13 6
-25 16 -18 16 -18 -7 -13 -17 3 -19 2 -9 -5 15 -11 23 -82 8 -82 -4 0 -1 -7 7
-16 18 -17 21 -28 6 -19 -5 3 -10 1 -10 -4 0 -6 6 -11 13 -11 9 0 9 -2 0 -8
-10 -7 -10 -12 1 -28 10 -13 11 -23 4 -31 -6 -7 -7 -13 -2 -13 5 0 10 -11 10
-25 1 -14 -2 -22 -7 -19 -5 3 1 -12 13 -32 12 -21 17 -34 10 -30 -7 4 -12 2
-12 -3 0 -6 5 -11 12 -11 6 0 8 -3 5 -7 -4 -3 -1 -13 6 -21 9 -13 9 -14 0 -8
-7 4 -13 2 -13 -3 0 -6 5 -11 11 -11 5 0 7 -4 4 -10 -3 -5 -1 -19 5 -30 8 -14
8 -20 0 -20 -6 0 -8 -5 -5 -10 4 -6 10 -8 15 -5 5 3 7 -4 5 -15 -2 -11 -1 -20
3 -20 4 0 8 -8 9 -17 2 -28 17 -74 34 -107 8 -14 7 -17 -3 -11 -7 3 -5 0 5 -8
22 -18 23 -27 5 -38 -10 -7 -9 -9 5 -9 12 0 17 -8 17 -26 0 -17 4 -23 13 -18
7 5 6 0 -3 -11 -9 -11 -10 -16 -2 -11 11 6 17 -5 13 -26 0 -5 4 -8 9 -8 5 0 9
-3 8 -7 -3 -15 21 -63 31 -63 6 0 8 -6 5 -14 -3 -7 2 -20 10 -29 8 -8 12 -17
9 -21 -4 -3 0 -6 7 -6 7 0 11 -3 7 -6 -3 -4 4 -15 16 -25 16 -13 18 -19 7 -19
-12 0 -11 -3 2 -11 10 -5 18 -17 18 -25 0 -9 5 -12 12 -8 7 5 9 2 6 -8 -4 -8
2 -21 13 -29 10 -7 19 -17 19 -22 0 -12 27 -37 33 -31 2 3 7 -2 11 -11 3 -9 2
-13 -4 -10 -6 3 -10 2 -10 -3 0 -6 12 -13 26 -16 22 -6 24 -9 12 -23 -11 -15
-10 -16 9 -11 14 4 22 2 20 -6 -1 -6 3 -10 10 -9 7 2 10 -4 7 -12 -6 -14 6
-20 29 -16 5 1 6 -3 2 -9 -3 -5 -1 -10 4 -10 6 0 11 -7 11 -16 0 -10 6 -14 15
-10 8 3 14 0 12 -6 -1 -7 3 -12 10 -13 7 0 18 -6 25 -14 11 -12 10 -13 -2 -7
-8 4 -6 0 5 -8 11 -9 24 -15 31 -12 6 2 11 -9 11 -30 0 -27 -3 -31 -14 -23
-10 9 -13 7 -13 -7 0 -15 -2 -16 -9 -5 -6 9 -11 10 -15 2 -4 -6 -11 -9 -16 -6
-4 3 -11 -2 -14 -11 -4 -10 -12 -14 -22 -10 -11 4 -15 2 -11 -8 4 -10 1 -13
-9 -9 -7 3 -14 0 -14 -7 0 -6 -4 -8 -10 -5 -5 3 -10 1 -10 -4 0 -6 -6 -10 -12
-8 -7 1 -12 -3 -11 -9 1 -7 -10 -15 -24 -19 -21 -5 -24 -8 -12 -16 12 -7 11
-9 -3 -9 -9 0 -25 -16 -37 -35 -11 -19 -25 -35 -31 -35 -6 0 -8 -5 -4 -12 5
-7 2 -9 -9 -5 -10 4 -14 2 -11 -6 2 -7 -5 -23 -16 -35 -11 -12 -16 -22 -10
-22 7 0 6 -5 -2 -14 -7 -8 -15 -13 -18 -11 -3 2 -6 -8 -7 -22 0 -14 -7 -29
-14 -34 -7 -4 28 -7 79 -5 50 2 98 8 106 15 7 6 22 8 31 4 12 -4 16 -3 12 4
-4 6 0 13 8 17 8 3 15 0 15 -7 0 -7 6 -3 12 7 11 19 11 19 24 1 10 -13 14 -14
14 -5 0 9 4 8 13 -5 8 -10 19 -15 25 -11 7 4 12 1 12 -6 0 -21 428 -22 452 -1
9 8 22 12 27 8 6 -3 11 -1 11 5 0 6 4 9 9 6 5 -3 12 1 15 10 4 9 11 12 18 7 7
-4 18 -8 23 -8 23 -2 44 -18 38 -29 -4 -8 -3 -8 6 0 13 12 54 7 47 -5 -2 -3
31 -7 75 -8 65 -2 79 1 79 13 0 9 -5 12 -12 8 -10 -5 -10 -4 -1 6 10 11 9 16
-2 24 -11 8 -12 15 -4 26 9 12 10 12 5 -4 -5 -16 -4 -17 8 -7 8 7 20 10 26 6
5 -3 10 0 11 7 0 7 4 4 9 -7 6 -13 9 -15 9 -5 1 13 2 13 11 0 9 -13 10 -13 10
0 1 12 3 11 11 -3 8 -14 14 -16 25 -6 9 7 14 8 14 1 0 -5 10 -8 22 -4 13 3 19
1 15 -5 -4 -6 4 -8 20 -5 19 4 24 2 18 -8 -6 -10 -4 -11 6 -4 19 12 33 12 41
0 4 -6 13 -4 24 5 11 9 15 9 10 2 -7 -13 2 -15 87 -16 20 -1 37 -5 37 -10 0
-5 7 -4 15 3 11 9 15 9 15 1 0 -9 5 -9 20 -1 11 6 20 7 20 2 0 -10 36 -9 46 1
4 4 12 7 18 7 6 0 5 -4 -2 -9 -10 -6 -7 -10 13 -13 15 -3 32 0 41 9 12 13 14
12 14 -1 0 -18 15 -21 25 -6 3 6 11 10 16 10 6 0 8 -4 5 -8 -3 -5 1 -9 9 -9 8
0 12 3 10 7 -2 3 11 6 30 6 21 0 31 -4 27 -10 -3 -6 6 -3 20 6 19 13 29 15 34
6 5 -7 3 -8 -6 -3 -9 6 -11 4 -5 -5 6 -10 11 -9 22 5 8 12 13 14 13 6 0 -11 3
-11 17 0 14 12 15 12 9 1 -7 -11 -4 -12 13 -3 11 7 21 8 21 3 0 -5 7 -9 15 -9
8 0 12 4 9 9 -3 4 -1 8 5 8 5 0 13 -5 16 -10 5 -8 11 -7 21 1 11 9 14 8 14 -2
0 -12 2 -12 9 0 5 8 16 11 25 8 8 -3 22 0 30 8 12 13 15 12 20 -1 5 -12 10
-14 20 -5 7 6 16 8 19 4 4 -3 7 0 7 7 0 7 3 10 7 7 3 -4 13 -1 21 6 13 9 14 9
8 0 -4 -8 -1 -13 9 -13 10 0 13 5 9 12 -5 8 0 7 11 -2 11 -9 16 -10 11 -3 -5
9 0 13 16 13 61 1 68 2 64 9 -3 4 5 7 17 6 12 -1 27 0 32 4 19 10 55 8 47 -3
-7 -11 -8 -17 -11 -37 0 -5 -5 -8 -9 -5 -4 2 -8 -3 -8 -13 0 -15 10 -18 73
-18 40 0 73 5 73 10 0 5 8 3 17 -4 9 -8 14 -9 10 -3 -8 13 13 24 44 24 11 0
18 3 16 7 -3 5 8 8 24 9 18 1 26 -3 22 -10 -4 -6 2 -4 12 4 15 12 17 12 10 1
-6 -11 -4 -13 8 -8 9 3 18 -1 21 -10 4 -9 14 -13 26 -10 11 3 18 2 15 -3 -8
-14 428 -8 442 5 7 7 11 14 10 16 -1 2 0 3 2 2 2 -2 11 3 19 10 13 10 14 9 7
-2 -5 -8 7 -4 26 9 19 13 28 17 22 10 -19 -21 -16 -32 6 -21 14 8 22 7 31 -4
8 -10 21 -13 33 -9 12 4 17 2 13 -4 -8 -13 24 -18 104 -18 63 1 65 2 62 26 -2
14 -9 30 -16 35 -7 6 -11 15 -9 22 2 6 -5 17 -15 25 -20 14 -22 17 -22 46 0
14 -2 15 -10 2 -8 -12 -10 -10 -10 8 0 13 -4 20 -10 17 -5 -3 -10 -1 -10 5 0
17 -26 40 -35 32 -5 -4 -5 -2 -2 5 4 6 1 17 -8 25 -33 30 -45 38 -45 32 0 -4
-9 5 -21 20 -18 23 -23 25 -37 14 -9 -7 -13 -8 -10 -3 4 6 3 17 -3 25 -6 11
-9 12 -9 2 0 -7 -5 -10 -10 -7 -6 4 -8 10 -5 15 3 5 -4 7 -15 5 -11 -2 -20 0
-20 5 0 4 -7 11 -16 14 -9 4 -13 2 -8 -5 4 -8 0 -7 -15 0 -11 7 -21 16 -21 22
0 6 -5 7 -12 3 -7 -4 -8 -3 -4 5 4 6 11 9 16 6 5 -3 14 4 20 15 6 11 15 18 20
15 5 -3 14 4 20 15 7 12 18 19 26 16 8 -3 13 0 11 7 -1 7 4 11 12 9 8 -2 11 3
8 12 -4 11 -1 13 10 9 11 -4 14 -2 9 5 -4 7 -2 12 4 12 6 0 8 4 5 10 -4 6 1 7
11 3 10 -3 15 -2 12 3 -6 9 46 66 58 63 3 0 8 2 11 5 4 3 1 6 -6 6 -7 0 -9 5
-6 10 4 6 11 7 17 4 7 -5 9 -1 5 9 -4 11 -1 17 8 17 8 0 15 7 15 16 0 8 5 12
10 9 6 -3 10 1 10 10 0 10 5 13 13 9 7 -5 7 -1 -3 12 -8 10 -11 16 -6 12 14
-12 35 15 24 30 -8 9 -7 11 7 6 13 -5 16 -4 11 4 -4 7 -1 12 8 12 9 0 13 8 12
24 -2 18 1 23 12 18 12 -4 14 0 10 16 -4 12 -2 20 3 16 5 -3 9 0 9 6 0 6 5 8
12 4 7 -4 8 -3 4 5 -4 6 -2 19 6 28 11 14 11 16 -2 9 -8 -4 -7 -1 4 8 10 8 15
20 10 27 -4 8 -3 10 4 5 8 -5 12 1 12 14 0 12 4 19 9 16 5 -4 7 2 4 13 -3 10
1 22 8 26 8 6 10 4 4 -5 -5 -9 -4 -11 4 -6 9 6 9 11 0 22 -9 11 -8 15 5 20 14
5 14 9 4 22 -10 12 -10 14 -1 9 8 -5 15 2 19 20 9 41 27 82 34 78 4 -2 7 2 7
10 0 8 -4 15 -9 15 -4 0 -8 5 -8 10 0 6 7 10 15 10 8 0 12 6 9 14 -3 8 0 17 6
21 8 5 7 11 -2 23 -7 9 -8 13 -2 9 14 -8 31 31 28 66 -2 19 1 25 9 20 7 -4 6
0 -2 10 -8 11 -9 17 -3 17 7 0 9 7 5 17 -5 12 -3 14 8 8 11 -7 11 -5 -1 10
-12 15 -12 17 -1 10 11 -6 13 -4 8 8 -3 9 -1 18 6 21 9 3 9 5 0 5 -7 1 -13 6
-13 12 0 6 7 8 16 5 14 -5 15 -4 5 8 -7 8 -8 17 -3 20 5 3 8 22 5 42 -2 19 0
33 5 30 4 -2 6 11 4 31 -4 28 -2 34 9 28 8 -5 5 2 -6 15 -11 13 -15 20 -9 17
7 -4 15 0 18 9 3 8 2 12 -4 9 -14 -9 -12 9 2 23 9 9 9 12 -1 12 -7 0 -9 5 -4
13 10 16 11 57 1 51 -4 -3 -8 0 -8 5 0 6 4 11 9 11 5 0 7 10 3 22 -4 15 -2 19
7 13 10 -6 10 -3 0 16 -15 28 -15 29 3 40 10 7 10 9 0 9 -7 0 -10 5 -7 10 3 6
0 10 -7 10 -8 0 -9 3 -3 8 16 11 19 46 3 36 -9 -6 -9 -3 1 10 13 15 13 19 0
27 -12 7 -12 9 1 9 13 0 13 1 0 11 -11 8 -12 12 -2 16 6 2 9 10 5 16 -14 22
-14 49 -1 41 7 -4 5 1 -4 12 -12 14 -14 24 -7 37 8 13 6 17 -8 17 -15 0 -16 2
-3 10 8 5 11 10 5 10 -5 0 -3 5 5 10 12 8 12 10 -5 10 -17 0 -17 2 -5 10 13 9
13 10 0 10 -13 0 -13 1 0 10 14 9 7 14 -13 11 -4 -1 -3 8 3 19 6 11 7 20 1 20
-5 0 -7 9 -4 20 3 13 0 20 -8 20 -11 0 -11 2 1 10 12 8 12 10 1 10 -11 0 -11
3 0 17 8 9 9 14 3 10 -7 -4 -15 0 -18 9 -9 23 -8 26 7 18 9 -6 9 -5 0 8 -7 8
-10 18 -6 21 3 4 1 7 -7 7 -10 0 -10 3 0 15 9 11 9 15 1 15 -7 0 -9 4 -6 10 3
6 1 10 -5 10 -8 0 -8 6 0 20 8 15 8 20 -3 20 -7 0 -13 9 -14 20 -1 12 4 20 13
20 10 0 12 -5 8 -12 -5 -8 0 -7 11 2 10 8 16 10 12 3 -4 -6 -1 -18 7 -26 8 -8
12 -17 9 -21 -4 -3 1 -6 11 -6 9 0 14 -4 11 -10 -3 -5 1 -10 10 -10 9 0 13 -4
10 -10 -3 -6 -1 -10 5 -10 6 0 8 -4 5 -10 -6 -9 8 -14 27 -11 5 0 7 -5 5 -12
-1 -6 4 -11 12 -9 9 2 11 -3 7 -14 -4 -11 -2 -15 8 -11 10 4 14 0 11 -12 -3
-14 2 -18 18 -15 12 2 17 2 10 -2 -9 -4 -5 -13 12 -28 14 -13 21 -27 17 -32
-4 -4 2 -2 12 6 17 13 19 13 15 0 -5 -16 55 -83 65 -72 6 5 10 -14 7 -30 0 -5
2 -8 7 -8 4 0 20 -11 36 -25 16 -14 26 -25 22 -25 -4 0 -1 -6 6 -14 9 -10 15
-11 20 -2 5 7 8 3 8 -9 0 -26 18 -45 43 -45 10 0 15 -4 12 -10 -3 -5 3 -17 14
-27 11 -9 18 -20 15 -24 -2 -4 6 -5 18 -1 20 5 21 3 10 -10 -11 -14 -10 -17 7
-23 12 -3 21 -11 21 -16 0 -6 5 -7 12 -3 8 5 9 2 5 -10 -4 -9 -3 -15 1 -13 10
6 42 -30 34 -39 -4 -4 -1 -4 6 0 7 5 15 -2 21 -17 6 -14 16 -29 23 -33 10 -6
10 -4 -1 9 -12 15 -12 17 3 11 14 -6 20 -17 17 -36 0 -4 8 -5 19 -3 11 2 23
-1 26 -7 4 -6 2 -8 -4 -4 -6 3 -13 2 -16 -2 -5 -8 16 -9 46 -3 3 0 10 15 13
32 5 23 9 28 16 18 6 -10 9 -8 9 9 0 16 -4 21 -12 16 -10 -6 -10 -4 -2 7 7 8
11 28 10 44 -2 17 2 33 8 38 8 5 8 9 0 15 -6 4 -10 15 -8 25 1 9 -3 17 -9 17
-9 0 -9 2 -1 8 19 12 21 36 5 50 -9 8 -10 10 -3 7 9 -5 13 -1 11 11 -2 11 0
25 5 33 7 10 6 12 -4 6 -10 -6 -12 -4 -7 8 3 10 2 17 -3 17 -5 0 -6 7 -3 17 4
10 2 14 -5 9 -6 -3 -14 -1 -18 5 -4 7 -3 9 3 6 6 -4 13 2 16 13 3 11 0 23 -5
27 -7 4 -8 1 -3 -7 5 -8 4 -11 -3 -6 -6 4 -9 13 -5 21 3 9 -1 15 -8 15 -10 0
-10 3 -1 12 9 9 8 16 -5 30 -19 21 -27 52 -11 42 6 -4 5 3 -1 15 -7 12 -9 26
-6 31 4 6 -1 7 -12 3 -16 -6 -16 -5 -4 10 10 13 10 17 1 17 -7 0 -10 7 -6 16
3 9 -4 29 -16 47 -12 17 -16 27 -9 23 10 -7 11 -4 2 13 -7 11 -16 21 -20 21
-5 0 -8 8 -7 18 2 9 0 19 -4 22 -5 3 -10 14 -12 25 -1 11 -11 27 -20 36 -13
12 -14 19 -6 27 9 9 9 12 -1 12 -7 0 -9 5 -5 12 5 8 2 9 -10 5 -10 -4 -15 -3
-11 3 3 6 0 10 -7 10 -9 0 -9 3 2 10 14 9 7 14 -13 11 -5 -1 -6 3 -3 8 9 15
-5 42 -18 34 -6 -4 -5 1 3 10 12 15 11 17 -4 17 -10 0 -15 3 -12 7 4 3 -1 12
-11 20 -9 8 -11 12 -4 8 17 -9 15 -2 -8 25 -12 13 -18 30 -15 37 2 8 1 11 -4
8 -12 -7 -42 35 -35 47 3 4 0 8 -6 8 -6 0 -9 4 -6 8 3 5 -6 15 -19 22 -21 11
-23 16 -12 29 8 9 8 12 1 8 -13 -7 -27 19 -19 33 3 5 -3 7 -14 5 -13 -2 -18 2
-17 13 3 18 -15 42 -26 36 -4 -3 -10 7 -14 21 -3 14 -10 25 -16 25 -5 0 -6 5
-3 10 3 6 -1 10 -9 10 -9 0 -15 3 -15 8 3 20 -3 32 -17 32 -8 0 -12 4 -9 10 3
6 1 10 -5 10 -6 0 -8 4 -5 10 3 6 1 10 -5 10 -6 0 -8 5 -5 10 3 6 -1 10 -9 10
-9 0 -15 6 -13 13 1 6 -4 11 -11 9 -8 -1 -11 2 -8 7 4 5 0 16 -8 24 -8 8 -12
18 -8 22 4 5 -1 5 -10 2 -12 -4 -15 -2 -11 9 3 7 1 14 -4 14 -10 0 -38 50 -35
62 1 4 -6 4 -15 1 -11 -4 -14 -3 -9 5 4 7 2 12 -3 12 -6 0 -11 9 -11 20 0 18
-11 25 -33 21 -5 -1 -5 4 -1 10 4 7 -1 18 -11 26 -11 7 -15 13 -9 13 5 1 -2 8
-16 16 -15 9 -18 13 -6 9 16 -5 17 -3 6 10 -7 8 -17 12 -23 8 -6 -4 -8 0 -4
10 4 12 1 17 -9 17 -10 0 -14 6 -11 14 4 9 -7 26 -26 43 -18 15 -27 24 -19 18
8 -5 3 8 -12 29 -14 21 -26 43 -26 47 0 5 -3 8 -7 8 -26 -4 -35 2 -24 15 10
11 8 16 -8 21 -10 3 -22 13 -25 21 -4 10 -2 13 7 8 8 -5 8 -2 -2 9 -7 9 -18
14 -24 10 -6 -4 -8 0 -4 10 3 9 2 19 -4 22 -5 4 -6 12 -2 18 4 7 0 6 -10 -2
-15 -12 -17 -10 -17 18 0 19 -4 30 -10 26 -6 -3 -10 1 -10 9 0 9 -5 16 -11 16
-5 0 -7 5 -4 10 3 5 2 10 -3 10 -9 0 -25 37 -23 53 1 4 -4 7 -9 7 -6 0 -10 7
-10 16 0 9 -5 12 -12 8 -8 -5 -9 0 -6 14 4 12 1 25 -4 29 -7 4 -8 1 -3 -7 5
-8 4 -11 -3 -7 -5 4 -8 17 -4 29 4 15 2 19 -7 14 -8 -6 -11 -2 -9 10 2 12 -2
18 -11 16 -8 -2 -11 3 -8 13 4 8 2 15 -3 15 -5 0 -7 7 -4 15 4 8 1 15 -6 15
-6 0 -8 4 -5 10 3 6 1 10 -6 10 -8 0 -8 4 1 15 11 13 10 14 -3 9 -12 -4 -15 0
-13 20 2 14 -1 23 -5 20 -5 -3 -9 4 -9 15 0 12 -6 21 -12 21 -9 0 -8 4 2 10 8
5 10 10 4 10 -7 0 -15 7 -18 16 -3 8 -2 13 3 10 9 -6 -11 59 -22 70 -4 4 -7
12 -7 18 0 6 5 4 10 -4 5 -8 10 -11 10 -6 0 5 -7 18 -16 28 -14 15 -15 20 -3
35 10 12 11 15 1 9 -10 -6 -12 2 -10 34 1 23 -3 44 -8 48 -14 9 -14 42 -1 42
5 0 2 12 -8 26 -9 15 -12 23 -6 20 6 -4 11 -2 11 3 0 6 -6 11 -12 11 -10 0
-10 2 0 9 11 6 10 11 -3 25 -9 9 -12 16 -7 16 10 0 10 30 -1 47 -4 6 -3 15 3
18 8 5 7 11 -1 21 -9 11 -8 14 2 14 12 0 12 2 1 9 -17 11 -17 21 0 32 9 6 9 9
1 9 -14 0 -14 39 0 57 6 9 4 15 -7 19 -13 5 -14 8 -1 20 16 16 9 47 -9 37 -6
-3 -6 -1 2 8 14 16 16 33 2 24 -5 -3 -10 -1 -10 4 0 6 7 11 16 11 8 0 12 5 9
10 -4 6 -11 7 -17 4 -5 -4 -2 6 8 22 14 21 14 26 3 17 -12 -10 -15 -8 -15 8 0
10 4 19 8 19 4 0 5 7 2 15 -4 9 -1 15 7 15 8 0 5 6 -7 15 -11 8 -14 14 -6 15
10 0 10 5 2 20 -9 16 -8 20 6 20 13 0 11 4 -7 21 -17 14 -19 19 -7 15 15 -4
16 -1 8 20 -13 34 -12 47 3 38 9 -5 9 -4 0 6 -6 7 -9 19 -6 26 3 8 -1 14 -8
14 -11 0 -11 3 1 10 13 9 13 10 0 10 -13 0 -13 1 0 10 12 8 12 10 1 10 -8 0
-11 3 -8 7 4 3 1 13 -6 21 -10 13 -9 15 7 8 18 -6 19 -5 4 11 -8 10 -13 24
-11 31 3 7 -1 20 -9 29 -7 9 -8 14 -2 10 6 -4 10 2 9 16 -2 12 -7 21 -12 20
-6 -1 -8 9 -5 22 3 16 0 25 -8 25 -10 0 -10 3 0 15 8 10 9 15 2 15 -6 0 -9 7
-6 15 5 11 1 14 -12 9 -17 -5 -17 -5 -2 6 21 13 12 44 -10 35 -12 -4 -11 0 4
16 16 19 17 21 2 16 -13 -4 -15 -2 -11 10 4 11 2 14 -5 9 -8 -4 -10 -2 -6 8 3
8 1 23 -5 34 -7 13 -7 22 2 31 9 10 8 11 -5 6 -12 -5 -16 -2 -14 12 2 9 -3 24
-11 31 -11 11 -11 17 -2 28 10 12 9 13 -4 8 -12 -4 -15 -1 -12 15 2 12 0 21
-4 21 -9 0 -37 61 -33 73 1 4 -2 7 -8 7 -5 0 -10 7 -10 15 0 8 -4 15 -9 15 -5
0 -8 8 -7 18 0 10 -5 16 -13 14 -12 -3 -12 -1 0 14 8 10 9 15 3 11 -14 -8 -27
20 -17 35 3 7 1 8 -6 4 -14 -9 -43 12 -35 25 8 13 -27 60 -39 52 -5 -3 -7 -2
-4 4 8 12 -38 65 -49 55 -4 -4 -2 1 5 11 12 15 11 17 -4 17 -11 0 -15 5 -11
15 7 18 -10 20 -18 3 -4 -7 -4 -3 -2 8 3 17 -1 21 -18 17 -16 -4 -18 -2 -7 5
11 8 9 11 -8 17 -11 3 -21 13 -21 21 0 8 -4 12 -10 9 -5 -3 -10 -3 -10 2 0 4
-13 14 -30 21 -20 9 -30 21 -30 35 0 16 -3 18 -12 9 -9 -9 -17 -5 -36 16 -13
15 -21 20 -17 12 5 -8 -1 -6 -12 5 -14 13 -16 22 -9 27 7 5 7 8 1 8 -6 0 -17
-6 -24 -12 -11 -10 -13 -10 -7 0 5 8 1 12 -12 12 -21 0 -66 43 -55 53 3 4 2 7
-3 7 -6 0 -16 -6 -23 -12 -7 -7 -12 -8 -11 -3 2 6 2 19 1 30 -1 17 -3 18 -11
5 -7 -11 -10 -11 -10 -2 0 7 -4 11 -9 8 -5 -3 -14 0 -20 8 -9 10 -124 13 -611
13 -387 0 -600 -3 -600 -10 0 -5 -7 -4 -15 3 -13 11 -14 10 -9 -4z m2054
-1660 c0 -3 -4 -8 -10 -11 -5 -3 -10 -1 -10 4 0 6 5 11 10 11 6 0 10 -2 10 -4z
m481 -1403 c13 -16 12 -17 -3 -4 -17 13 -22 21 -14 21 2 0 10 -8 17 -17z m749
-1203 c0 -5 -2 -10 -4 -10 -3 0 -8 5 -11 10 -3 6 -1 10 4 10 6 0 11 -4 11 -10z
m-1099 -2177 c13 -16 12 -17 -3 -4 -17 13 -22 21 -14 21 2 0 10 -8 17 -17z"/>
<path d="M4080 6686 c0 -2 8 -10 18 -17 15 -13 16 -12 3 4 -13 16 -21 21 -21
13z"/>
<path d="M4260 6566 c0 -2 8 -10 18 -17 15 -13 16 -12 3 4 -13 16 -21 21 -21
13z"/>
</g>
</svg>
